<?xml version="1.0" standalone="no"?>
<!DOCTYPE svg PUBLIC "-//W3C//DTD SVG 20010904//EN"
 "http://www.w3.org/TR/2001/REC-SVG-20010904/DTD/svg10.dtd">
<svg version="1.0" xmlns="http://www.w3.org/2000/svg"
 width="723.000000pt" height="723.000000pt" viewBox="0 0 723.000000 723.000000"
 preserveAspectRatio="xMidYMid meet">
<metadata>
Created by potrace 1.16, written by Peter Selinger 2001-2019
</metadata>
<g transform="translate(0.000000,723.000000) scale(0.100000,-0.100000)"
fill="#000000" stroke="none">
<path d="M3615 5833 c-45 -16 -119 -34 -152 -36 -11 -1 -20 -4 -18 -7 2 -4 -5
-11 -16 -18 -10 -7 -19 -8 -19 -3 0 5 6 12 13 14 6 3 0 6 -15 6 -16 1 -28 -3
-28 -9 0 -5 -11 -10 -25 -10 -62 0 -367 -142 -489 -228 -28 -19 -72 -41 -99
-48 -46 -12 -78 -34 -88 -61 -8 -23 -130 -115 -144 -109 -10 4 -14 -1 -12 -16
1 -16 -6 -25 -28 -32 -36 -12 -179 -110 -197 -134 -7 -10 -29 -29 -48 -42 -81
-55 -240 -227 -240 -260 0 -15 -40 -83 -65 -110 -12 -14 -30 -38 -38 -55 l-16
-30 -1 29 c0 29 -1 29 -32 -20 -18 -27 -49 -85 -68 -129 -27 -61 -40 -81 -57
-83 -14 -2 -23 3 -28 17 -3 12 -11 21 -16 21 -9 0 -12 -62 -9 -217 1 -81 -1
-97 -19 -119 l-21 -27 0 191 0 192 48 24 c59 30 122 92 122 121 0 40 65 123
225 290 199 208 227 235 243 235 7 0 44 23 84 52 60 44 68 53 52 59 -10 4
-221 15 -469 24 -247 9 -555 23 -684 30 -129 8 -323 18 -432 21 -168 6 -199 5
-198 -7 0 -8 -2 -860 -4 -1894 l-4 -1879 50 -71 c62 -86 99 -134 201 -254 l80
-93 255 6 c141 3 382 9 536 12 155 4 285 11 292 16 7 5 17 7 23 3 6 -4 23 1
38 11 15 10 35 19 44 19 9 1 48 27 86 58 86 70 115 78 73 18 -11 -15 -22 -38
-26 -52 -10 -39 31 -284 63 -384 29 -92 47 -135 125 -305 19 -41 72 -134 96
-170 10 -14 27 -45 39 -70 19 -38 78 -120 150 -205 13 -16 50 -27 157 -48 241
-47 348 -58 636 -64 272 -6 368 -1 339 17 -8 5 -12 12 -8 15 3 3 13 -2 23 -11
16 -17 25 -17 159 -1 366 44 733 148 1071 303 162 74 326 165 326 179 0 9 -20
16 -96 30 -42 9 -44 15 -4 15 19 -1 57 -9 84 -19 l50 -18 54 36 c29 19 49 36
45 37 -5 1 -26 5 -46 9 -26 4 -39 12 -44 27 -6 20 -10 21 -120 15 -103 -6
-135 -1 -117 17 3 3 12 1 19 -5 8 -7 14 -7 19 1 3 5 18 10 33 10 30 0 60 15
50 26 -4 3 -29 8 -55 11 -69 6 -93 12 -93 23 0 6 27 10 61 10 40 0 65 5 75 15
14 13 12 15 -13 16 -68 3 -128 -3 -135 -14 -6 -9 -8 -8 -8 3 0 8 -14 28 -30
44 -17 16 -30 33 -30 37 0 13 124 -2 220 -28 103 -27 235 -69 317 -102 l52
-20 103 80 c57 44 155 128 218 187 114 106 276 271 253 258 -6 -3 -14 -2 -18
4 -3 5 -11 10 -16 10 -6 0 -8 -4 -5 -8 2 -4 -30 -8 -72 -9 -42 -1 -97 -3 -122
-6 -25 -2 -53 0 -62 5 -9 4 -19 4 -22 -1 -3 -5 -21 -6 -39 -2 -18 5 -41 5 -52
1 -11 -4 -31 -3 -44 2 -17 6 -27 5 -32 -3 -4 -7 -36 -12 -82 -13 -42 -1 -73 3
-70 8 7 11 -79 -1 -87 -12 -8 -10 -102 -13 -114 -3 -6 5 -31 12 -56 15 -28 5
-40 4 -32 -2 11 -7 10 -10 -3 -16 -27 -10 -38 -7 -31 9 6 18 -4 19 -37 4 -16
-7 -31 -8 -43 -2 -25 13 -69 -8 -52 -25 8 -8 5 -9 -11 -5 -23 6 -26 15 -11 42
9 17 38 19 427 25 230 4 474 9 543 11 69 3 137 5 152 5 22 0 41 18 105 97 438
544 694 1153 785 1863 18 141 18 700 0 830 -42 304 -92 522 -174 759 -48 140
-133 349 -146 363 -4 3 -218 11 -477 17 -258 6 -499 13 -535 16 -36 2 -227 7
-425 11 -324 6 -359 5 -345 -9 8 -9 52 -49 97 -89 161 -143 292 -308 403 -506
62 -110 113 -167 178 -199 20 -10 38 -23 40 -30 5 -16 -149 60 -169 83 -9 11
-30 48 -49 84 -40 80 -148 248 -203 315 -98 120 -282 300 -360 353 -26 17 -35
28 -27 36 19 19 11 44 -17 50 -14 4 -54 36 -88 71 -54 55 -70 65 -126 81 -35
10 -131 50 -214 90 -82 40 -177 80 -210 90 -33 9 -117 45 -186 79 -110 56
-186 84 -369 139 -51 16 -114 11 -131 -10 -6 -8 -16 -14 -22 -14 -7 0 -7 4 1
12 13 13 16 29 5 27 -5 -1 -26 -8 -48 -16z m-65 -179 c0 -17 -28 -33 -51 -27
-19 5 -19 4 -34 -107 -3 -25 -9 -62 -11 -82 -6 -40 4 -48 28 -25 15 16 111
127 118 137 10 14 50 21 68 11 10 -5 36 -44 57 -86 31 -61 43 -75 59 -73 12 2
25 13 31 26 6 13 18 22 33 22 27 0 41 -31 34 -78 l-4 -33 -54 7 c-44 5 -54 4
-54 -9 0 -19 18 -34 53 -42 20 -6 27 -13 27 -32 0 -25 -1 -26 -52 -19 -29 3
-72 6 -96 6 -41 0 -43 1 -40 28 2 19 9 28 26 30 18 3 22 8 16 25 -10 32 -20
36 -93 35 -53 0 -71 -4 -88 -21 -30 -27 -29 -37 2 -37 21 0 25 -5 25 -28 0
-27 -2 -29 -52 -32 -116 -8 -132 -6 -136 14 -4 21 13 36 44 36 12 0 25 10 32
24 l10 24 -64 -6 c-60 -4 -64 -3 -64 16 0 16 7 21 32 24 l32 3 13 100 c15 115
14 140 -7 141 -35 2 -40 5 -40 24 0 17 8 19 68 22 91 4 132 -1 132 -18z m-20
-854 c63 -1 159 -1 212 -1 54 0 109 -4 123 -9 14 -5 49 -10 78 -11 55 -2 94
-17 117 -44 12 -14 38 -29 70 -40 3 -1 12 -4 20 -7 59 -20 91 -28 118 -28 17
0 51 -6 74 -14 24 -8 59 -17 78 -21 33 -7 112 -37 136 -53 32 -20 149 -114
150 -120 3 -24 21 -45 50 -57 19 -8 34 -19 34 -25 0 -5 13 -24 29 -40 15 -17
43 -58 61 -93 18 -34 36 -64 40 -67 4 -3 9 -17 12 -32 4 -20 1 -28 -8 -28 -8
0 -14 -11 -14 -25 0 -18 5 -25 20 -25 16 0 19 -5 16 -26 -4 -22 -2 -25 14 -21
30 8 33 -8 5 -23 -14 -7 -25 -17 -25 -22 0 -11 18 -10 25 2 3 6 11 10 17 10 6
0 5 -6 -3 -16 -7 -9 -22 -14 -36 -11 -13 2 -26 0 -29 -4 -3 -5 12 -9 33 -9 31
0 40 -5 50 -27 7 -14 9 -31 5 -37 -12 -17 -7 -51 6 -48 7 1 12 -7 12 -17 0
-11 3 -27 7 -37 5 -14 2 -16 -16 -11 -28 7 -38 -16 -21 -47 18 -35 19 -107 2
-141 -9 -16 -15 -36 -13 -44 1 -8 -2 -10 -9 -6 -9 5 -10 1 -5 -14 4 -13 2 -21
-5 -21 -7 0 -9 -8 -5 -20 6 -18 3 -19 -24 -14 -24 5 -31 3 -31 -9 0 -9 5 -19
12 -23 7 -5 3 -11 -13 -17 -20 -8 -21 -11 -6 -14 22 -6 22 -7 -12 -57 -21 -30
-28 -52 -27 -78 l3 -36 -26 16 c-20 13 -22 18 -9 20 15 3 14 6 -3 23 -12 12
-24 18 -27 14 -4 -3 0 -11 8 -16 11 -8 12 -12 3 -16 -10 -3 -10 -10 -2 -25 15
-27 -3 -47 -26 -28 -17 15 -20 81 -4 97 18 18 1 34 -29 27 -54 -12 -56 -14
-36 -28 11 -8 15 -18 10 -23 -5 -4 -11 -2 -13 5 -3 6 -13 12 -24 12 -10 0 -19
6 -19 14 0 25 -54 36 -63 12 -8 -21 3 -56 19 -56 7 0 12 -9 11 -20 -1 -11 -7
-20 -14 -20 -7 0 -13 -7 -13 -16 0 -24 -20 -6 -21 19 0 12 -3 16 -6 10 -14
-36 -53 18 -53 73 0 15 -43 26 -65 18 -9 -4 -14 -13 -11 -20 3 -9 0 -11 -11
-7 -11 4 -14 3 -9 -6 5 -7 19 -16 32 -21 29 -11 33 -34 4 -25 -11 3 -20 2 -20
-3 0 -12 47 -25 60 -17 16 10 58 -17 65 -42 4 -16 11 -23 20 -19 8 3 15 2 15
-2 -1 -16 -17 -28 -40 -29 -14 -1 -19 1 -12 4 16 6 15 23 -2 23 -23 0 -29 -31
-7 -37 11 -3 22 -11 25 -19 3 -8 12 -14 20 -14 8 0 18 -5 22 -12 5 -7 2 -9 -8
-6 -8 4 -21 3 -28 -2 -9 -6 -8 -12 7 -27 11 -11 27 -22 36 -26 23 -9 21 -27
-3 -27 -12 0 -17 -5 -14 -14 6 -17 -35 -29 -52 -16 -6 6 -10 28 -9 50 1 22 -1
40 -5 40 -11 0 -20 -28 -14 -43 2 -7 -4 -23 -15 -36 -20 -23 -20 -23 0 -51 14
-18 27 -26 40 -23 28 8 69 -5 69 -22 0 -8 8 -18 17 -24 10 -5 15 -12 11 -16
-3 -3 -15 -1 -27 6 -11 7 -24 10 -28 6 -4 -5 -1 -12 6 -16 9 -6 11 -14 4 -26
-6 -10 -13 -13 -16 -8 -3 5 -20 8 -36 5 l-30 -4 21 -29 c12 -16 27 -29 34 -29
7 0 14 -5 16 -12 3 -8 13 -7 35 4 34 17 71 7 43 -12 -8 -5 -20 -10 -27 -10 -6
0 -19 -9 -27 -21 -8 -12 -19 -18 -25 -15 -6 4 -20 -2 -32 -13 -12 -11 -28 -17
-36 -14 -9 4 -11 8 -4 12 16 10 -4 32 -22 25 -9 -3 -19 -14 -22 -25 -7 -23
-25 -25 -25 -4 0 8 -5 15 -11 15 -5 0 -8 -4 -4 -9 11 -19 -61 -24 -94 -7 -32
17 -41 40 -18 49 6 3 3 6 -8 6 -16 1 -17 3 -5 11 12 8 12 10 -3 16 -9 3 -17
12 -17 19 0 16 -60 79 -84 88 -13 5 -17 15 -14 36 3 22 1 28 -11 23 -9 -4 -12
-1 -7 7 5 7 1 18 -10 25 -12 9 -15 19 -9 32 5 10 9 29 10 41 0 12 4 25 8 29
10 11 -2 24 -23 24 -21 0 -33 25 -24 52 4 13 -2 28 -16 43 -14 15 -20 30 -16
40 10 27 -4 38 -24 20 -10 -9 -21 -12 -24 -7 -3 5 1 15 9 22 20 16 19 37 -2
58 -12 12 -18 13 -21 4 -2 -7 -8 -10 -12 -7 -5 3 0 15 10 25 11 11 20 33 20
49 0 24 4 28 19 24 10 -3 22 0 25 6 11 17 26 13 20 -4 -4 -9 0 -15 9 -15 8 0
18 -7 21 -16 5 -13 11 -10 32 15 14 17 29 29 34 26 4 -2 10 8 13 23 3 15 15
37 27 50 11 12 17 22 13 22 -4 0 -2 5 5 12 9 9 15 9 24 0 17 -17 49 -15 65 6
10 12 16 14 19 4 3 -6 10 -9 16 -6 20 13 78 22 78 13 0 -5 17 -2 38 7 20 9 43
18 50 21 7 3 12 -2 12 -12 0 -14 8 -16 48 -13 46 3 72 16 72 37 0 7 10 9 24 5
21 -5 25 -1 31 27 5 23 3 34 -8 40 -15 9 -12 59 4 59 5 0 9 7 9 16 0 11 6 14
20 9 11 -4 20 -2 20 4 0 14 37 51 50 51 13 0 3 47 -16 77 -18 28 -18 33 1 33
8 0 15 5 15 10 0 6 -4 10 -8 10 -5 0 -13 10 -19 23 -8 16 -6 28 5 46 9 14 16
47 17 82 0 50 -2 59 -17 59 -14 0 -18 9 -19 35 -1 19 -2 38 -3 43 -3 15 -29
57 -39 64 -6 3 -12 14 -13 23 -1 9 -11 23 -21 31 -29 22 -150 92 -172 99 -12
3 -21 12 -21 20 0 15 -60 53 -103 66 -21 6 -29 4 -34 -7 -8 -21 -56 -17 -84 7
-22 19 -32 21 -103 15 -43 -4 -83 -3 -90 2 -6 6 -40 5 -84 -1 -54 -7 -79 -7
-99 2 -22 10 -29 9 -50 -11 -19 -18 -26 -20 -32 -9 -7 11 -13 9 -27 -8 -22
-25 -33 -26 -49 -4 -12 16 -15 14 -34 -17 -12 -19 -19 -41 -16 -49 3 -8 0 -11
-9 -8 -8 3 -16 -2 -19 -14 -6 -24 -41 -21 -61 6 -14 19 -46 15 -46 -6 0 -6 7
-8 16 -5 15 6 15 4 1 -17 -8 -13 -13 -35 -10 -50 3 -15 1 -33 -5 -40 -7 -8 -5
-24 9 -52 11 -22 17 -45 15 -52 -3 -7 2 -19 10 -28 18 -17 10 -97 -11 -115
-10 -8 -9 -21 1 -62 8 -29 12 -60 8 -70 -3 -9 0 -35 6 -58 9 -34 8 -43 -5 -56
-12 -13 -14 -31 -9 -97 4 -45 11 -87 16 -93 4 -6 6 -18 3 -26 -3 -8 0 -20 8
-26 9 -7 13 -30 11 -65 -2 -48 1 -56 22 -67 13 -7 26 -21 30 -32 5 -18 30 -25
36 -10 5 15 68 -8 68 -24 0 -8 9 -24 20 -36 22 -24 26 -48 9 -48 -5 0 -7 5 -4
10 3 6 -1 10 -9 10 -9 0 -16 -4 -16 -10 0 -16 -33 -12 -75 10 -22 11 -43 20
-47 20 -4 0 -27 -20 -52 -44 -44 -42 -46 -43 -97 -38 -37 3 -50 2 -45 -7 4 -6
2 -11 -3 -11 -6 0 -11 -9 -11 -20 0 -11 -4 -20 -10 -20 -5 0 -10 -5 -10 -12 0
-6 -8 -20 -17 -30 -14 -16 -15 -24 -5 -52 21 -58 17 -66 -32 -66 -25 0 -48 -5
-51 -11 -4 -6 -19 -7 -35 -4 -16 3 -31 2 -35 -4 -10 -17 -46 -13 -51 7 -3 9
-17 23 -32 30 -35 16 -50 15 -26 -3 12 -9 14 -14 6 -15 -7 0 -11 -4 -8 -9 3
-5 16 -7 29 -5 20 4 21 4 2 -5 -11 -5 -30 -10 -41 -10 -12 -1 -24 -8 -28 -16
-5 -15 4 -19 37 -16 9 1 17 -2 17 -8 0 -15 -54 -41 -84 -41 -30 0 -43 -17 -19
-23 12 -3 9 -5 -8 -6 -15 0 -32 6 -40 15 -11 14 -13 14 -21 0 -11 -20 -62 -21
-78 -1 -16 19 -30 19 -30 -1 0 -8 5 -12 10 -9 6 3 10 1 10 -4 0 -6 -4 -11 -10
-11 -5 0 -10 -10 -10 -21 0 -12 -15 -35 -33 -53 -18 -17 -41 -43 -50 -58 -10
-16 -23 -25 -31 -22 -16 6 -27 -18 -16 -36 12 -20 1 -39 -34 -55 l-31 -15 0
-82 c0 -79 -1 -82 -25 -89 -17 -5 -19 -7 -7 -8 10 -1 15 -6 12 -11 -4 -6 -2
-17 4 -24 13 -15 -7 -66 -26 -66 -15 0 -17 -16 -3 -25 6 -3 10 -26 10 -51 0
-33 -4 -44 -16 -44 -8 0 -12 -5 -9 -11 4 -6 13 -8 21 -5 9 3 14 -1 14 -14 0
-10 -9 -22 -21 -25 -14 -5 -18 -10 -10 -14 16 -10 -4 -61 -24 -61 -10 0 -15
-10 -15 -30 0 -18 -6 -33 -15 -36 -8 -4 -13 -9 -10 -14 2 -4 -1 -15 -8 -24
-12 -17 -15 -17 -49 2 -30 17 -37 18 -42 6 -8 -22 -32 -17 -50 11 -9 14 -23
25 -32 25 -8 0 -12 5 -9 10 7 11 -53 110 -67 110 -4 0 -8 12 -8 26 0 14 -4 23
-10 19 -6 -4 -7 2 -1 18 5 14 6 28 2 33 -12 14 -37 93 -56 179 -9 44 -23 103
-31 130 -13 52 -20 87 -55 315 -26 166 -36 456 -20 590 7 52 18 165 27 250 8
85 16 162 19 170 3 8 7 32 9 53 3 21 7 41 10 45 2 4 15 57 29 118 31 136 68
220 147 328 91 127 190 198 377 269 187 72 328 104 483 111 47 2 96 9 110 14
14 6 32 9 40 6 8 -2 67 -4 130 -4z m-1739 -819 c-13 -36 -40 -102 -61 -146
-21 -44 -43 -96 -48 -115 -17 -58 -22 -128 -11 -132 17 -6 13 -67 -6 -88 -10
-11 -35 -23 -55 -26 l-37 -6 -18 -125 -17 -125 22 -20 c20 -18 23 -19 39 -4
20 18 71 120 91 179 6 21 14 36 16 34 3 -2 -8 -40 -24 -84 -30 -83 -76 -163
-92 -163 -5 0 -24 -16 -42 -35 -23 -26 -34 -32 -40 -23 -4 8 -8 -4 -8 -29 0
-24 -4 -43 -9 -43 -13 0 -24 254 -16 392 8 157 30 310 50 348 8 16 28 36 44
44 34 18 75 64 100 115 11 20 30 48 44 63 22 23 23 29 10 39 -12 11 -12 14 1
21 9 5 16 15 16 23 0 24 34 22 54 -4 20 -24 20 -24 -3 -90z m3859 -93 c22 -7
40 -16 40 -21 0 -21 97 -149 131 -172 36 -23 39 -29 39 -72 0 -25 -3 -43 -7
-39 -5 4 -9 12 -9 17 -1 5 -2 12 -3 15 0 3 -14 -4 -30 -15 -16 -12 -34 -21
-39 -21 -6 0 -21 21 -34 48 -13 26 -29 51 -36 55 -7 5 -30 44 -52 87 -22 43
-44 81 -50 85 -13 8 -13 45 0 45 6 0 28 -6 50 -12z m207 -515 c-4 -121 -14
-247 -26 -323 -23 -142 -27 -156 -48 -164 -11 -5 -13 0 -9 22 9 48 25 172 51
391 18 156 22 218 14 228 -13 15 -5 43 12 43 9 0 10 -49 6 -197z m-2491 -944
c3 -6 17 -8 33 -4 51 14 165 14 197 0 18 -7 36 -9 41 -4 11 11 37 -6 29 -20
-4 -6 -12 -11 -17 -11 -6 0 -8 4 -4 9 3 5 -7 3 -23 -5 -16 -8 -73 -16 -133
-19 -161 -8 -207 -13 -230 -26 -11 -6 -23 -8 -26 -6 -8 8 -77 -14 -95 -30 -16
-14 -18 -14 -24 1 -3 9 -14 16 -23 16 -14 1 -13 3 3 15 17 13 18 15 3 15 -21
0 -22 16 -1 24 8 3 12 10 9 16 -4 6 8 11 27 12 18 0 44 2 58 4 14 1 48 3 76 5
29 1 58 5 65 10 19 12 27 11 35 -2z m-2225 -406 c257 -10 166 -21 -178 -22
-245 -1 -305 4 -260 22 19 8 232 8 438 0z m1279 -224 c0 -9 7 -20 16 -23 9 -4
14 -13 10 -21 -3 -8 0 -15 7 -15 13 0 47 -54 47 -74 0 -7 11 -19 25 -26 14 -8
24 -19 21 -26 -2 -6 3 -20 13 -30 9 -11 23 -33 31 -50 7 -17 26 -36 42 -43 32
-14 49 -42 30 -49 -7 -2 -12 -8 -12 -14 0 -6 14 -8 36 -4 29 6 42 3 69 -18 18
-14 35 -36 38 -48 4 -14 21 -29 44 -39 l37 -16 -32 -17 c-19 -10 -32 -12 -32
-6 0 6 -4 8 -10 5 -17 -11 -11 -23 15 -29 28 -7 34 -26 8 -26 -14 0 -13 -3 5
-16 21 -14 26 -14 54 -1 17 8 25 17 19 21 -17 11 0 36 25 36 19 0 24 -5 24
-26 0 -18 6 -28 21 -31 11 -3 18 -11 15 -19 -3 -7 -1 -14 5 -16 5 -2 -3 -16
-17 -32 -15 -15 -23 -31 -18 -35 14 -10 12 -51 -3 -51 -7 0 -12 5 -10 12 3 17
-31 22 -49 7 -11 -9 -11 -15 -3 -25 6 -8 16 -11 21 -8 5 3 12 -3 15 -15 7 -28
27 -27 47 4 10 14 26 25 39 25 18 0 23 5 22 28 0 24 3 27 35 26 21 0 40 6 48
15 11 14 12 14 10 -3 -4 -27 27 -44 52 -28 30 18 35 14 9 -7 l-24 -20 22 -21
c18 -16 27 -18 42 -11 10 6 21 8 24 4 4 -3 13 -1 20 6 14 11 47 6 47 -8 0 -3
3 -16 6 -28 5 -18 2 -23 -11 -23 -15 0 -13 -5 9 -25 35 -32 40 -31 33 5 -4 19
-1 34 9 45 22 21 34 19 35 -7 0 -13 3 -17 6 -10 2 6 14 12 24 12 11 0 18 -4
14 -9 -3 -6 2 -14 11 -19 24 -13 -1 -26 -25 -12 -28 15 -39 12 -18 -5 13 -9
17 -20 12 -34 -5 -17 -2 -21 16 -21 21 0 22 -2 8 -15 -9 -9 -37 -17 -65 -19
-48 -2 -49 -3 -49 -33 0 -40 -13 -53 -29 -30 -7 9 -21 17 -31 17 -9 0 -19 9
-22 19 -6 23 -29 35 -39 20 -3 -6 4 -19 17 -30 l22 -19 -30 0 c-22 0 -30 5
-30 18 1 53 -4 68 -20 68 -10 0 -29 4 -43 8 -23 8 -24 7 -6 -6 18 -14 18 -15
-1 -34 -11 -10 -26 -29 -32 -41 -10 -21 -9 -23 11 -23 13 0 42 -7 65 -15 23
-8 48 -12 56 -9 8 3 19 -2 26 -9 9 -12 8 -18 -4 -30 -8 -9 -15 -20 -15 -26 0
-18 -59 -71 -79 -71 -32 0 -35 20 -4 21 l28 1 -25 7 c-14 4 -33 3 -44 -3 -14
-8 -20 -8 -23 2 -3 6 -12 12 -21 12 -8 0 -12 3 -9 7 4 3 2 12 -4 20 -9 10 -8
13 5 13 9 0 16 -5 16 -11 0 -5 5 -7 11 -4 6 4 8 13 5 21 -3 8 1 14 9 14 8 0
12 -6 10 -12 -7 -19 45 -41 62 -27 14 13 7 33 -8 23 -6 -3 -16 1 -22 9 -7 9
-32 18 -56 20 -45 4 -72 27 -32 27 13 0 21 6 21 16 0 11 -5 14 -16 10 -20 -8
-41 4 -24 14 9 6 9 12 -1 29 -8 11 -17 21 -22 21 -4 0 -19 11 -33 25 -28 28
-59 24 -51 -7 3 -11 0 -21 -8 -24 -7 -3 -16 -17 -20 -32 -4 -15 -12 -30 -18
-34 -6 -4 -9 -10 -5 -13 3 -4 16 3 27 14 13 13 16 21 9 21 -7 0 -5 5 5 11 14
8 22 8 30 0 14 -14 40 -15 32 -1 -3 6 1 10 9 10 23 0 20 -33 -4 -48 -11 -7
-20 -21 -20 -32 0 -11 -6 -20 -14 -20 -10 0 -12 -8 -7 -32 5 -23 13 -33 24
-32 10 1 16 -3 15 -10 -4 -18 26 -76 39 -76 7 0 13 -4 13 -10 0 -5 6 -7 14 -4
8 3 17 1 20 -4 3 -6 -1 -12 -9 -15 -30 -12 -62 5 -110 60 -27 32 -106 116
-173 188 -68 71 -165 188 -215 259 -51 70 -118 165 -150 210 -59 81 -59 81
-52 136 4 30 8 152 11 270 2 118 4 217 4 220 0 13 49 -97 50 -111z m83 -736
c53 -80 139 -187 219 -274 72 -79 176 -198 231 -264 56 -66 130 -153 164 -194
67 -79 69 -92 15 -112 -29 -11 -63 8 -40 23 10 6 10 10 -2 18 -8 5 -21 8 -27
5 -19 -7 -39 -12 -31 -8 9 5 0 53 -12 67 -5 4 -24 8 -44 8 -20 0 -36 4 -36 8
0 4 -14 13 -31 20 -17 7 -35 24 -40 37 -4 12 -14 23 -21 23 -10 0 -10 2 0 9
10 6 7 10 -12 15 -16 4 -35 1 -49 -9 -22 -14 -25 -14 -42 5 -10 11 -15 20 -11
20 19 0 -33 54 -70 71 -27 13 -46 31 -54 50 -7 16 -16 29 -21 29 -4 0 -10 8
-14 18 -3 9 -25 38 -49 65 -23 26 -56 73 -73 105 -17 31 -49 91 -72 133 -65
121 -87 281 -49 352 11 21 0 35 171 -220z m1583 -536 c22 1 47 -47 38 -71 -3
-8 4 -16 15 -19 28 -7 26 -33 -4 -73 -14 -18 -25 -44 -25 -58 0 -36 -39 -135
-61 -155 -10 -9 -29 -25 -42 -35 -14 -11 -23 -25 -20 -32 2 -6 -8 -21 -22 -33
-25 -19 -29 -20 -57 -5 -24 12 -36 13 -54 5 -19 -8 -24 -8 -24 4 0 19 -23 19
-60 0 -33 -17 -80 -11 -80 10 0 7 -8 15 -19 18 -16 4 -17 11 -11 53 5 35 4 52
-6 62 -24 23 -17 41 14 37 15 -2 30 -4 35 -4 4 -1 8 -9 8 -18 1 -15 2 -15 6
-2 2 9 14 22 27 29 24 12 24 12 5 31 -19 19 -18 45 1 34 13 -8 62 14 55 25 -4
6 -1 17 5 25 10 12 9 15 -4 15 -13 0 -13 3 4 20 11 11 28 20 38 20 16 1 16 2
0 13 -24 19 -12 31 61 60 53 21 60 26 40 30 -15 3 -9 5 18 6 23 0 45 6 48 11
4 6 16 8 28 3 12 -4 31 -7 43 -6z"/>
<path d="M3140 4500 c0 -34 -14 -39 -30 -10 -6 11 -15 20 -21 20 -6 0 -3 -10
5 -22 24 -34 19 -42 -10 -19 -23 18 -28 19 -41 6 -8 -8 -18 -15 -22 -15 -11 0
-37 31 -33 39 1 3 -27 7 -63 9 -36 2 -65 -1 -65 -6 0 -11 -68 -35 -80 -27 -5
3 -35 -7 -65 -24 -30 -17 -62 -28 -70 -25 -20 8 -65 -4 -65 -16 0 -6 8 -10 18
-10 12 0 8 -6 -13 -20 -16 -11 -36 -18 -43 -15 -7 3 -10 0 -7 -5 3 -6 3 -10
-2 -10 -17 -1 -175 -158 -169 -169 4 -5 1 -19 -5 -29 -7 -12 -9 -27 -4 -38 5
-11 7 -23 6 -28 -2 -11 82 4 95 17 3 3 19 3 35 0 24 -5 35 0 60 26 21 22 36
30 49 26 12 -4 27 2 39 14 19 19 32 23 101 26 18 1 24 6 22 19 -3 14 1 16 20
10 13 -4 39 -8 58 -10 19 -1 43 -2 54 -3 12 -1 16 -6 13 -16 -4 -8 -2 -17 4
-20 20 -13 -19 -32 -76 -39 -33 -5 -93 -21 -132 -38 -84 -34 -143 -92 -188
-183 -24 -49 -26 -60 -15 -80 18 -34 60 -42 81 -16 17 21 18 21 51 4 18 -10
36 -22 40 -28 4 -6 8 -2 8 8 0 10 -8 17 -19 17 -17 0 -19 5 -14 38 3 20 15 49
25 65 22 30 57 36 59 10 7 -76 6 -75 32 -105 13 -15 35 -30 50 -33 46 -12 20
-24 -43 -20 -60 4 -60 4 -60 -24 0 -27 4 -29 60 -42 33 -7 60 -16 60 -19 0 -4
-11 -12 -24 -18 -19 -8 -24 -17 -22 -39 3 -27 6 -28 52 -27 27 1 71 8 98 15
39 11 50 11 53 2 3 -7 9 -13 14 -13 6 0 8 4 4 9 -3 6 8 8 28 4 23 -3 49 2 81
16 81 37 206 187 205 246 0 16 -3 14 -16 -9 -15 -29 -52 -74 -54 -65 0 2 -2
14 -3 26 -2 13 -11 32 -21 43 -18 20 -18 20 12 20 23 0 32 5 36 21 6 21 34 21
29 0 -5 -23 28 -10 34 13 7 28 -13 133 -26 141 -5 3 -7 12 -4 19 3 8 1 17 -5
21 -6 3 -8 17 -5 30 3 13 1 33 -6 44 -8 16 -8 21 1 21 6 0 9 6 6 14 -3 8 -1
17 6 20 7 2 4 5 -6 5 -24 1 -11 21 14 21 16 0 18 5 13 27 -10 36 -30 74 -46
84 -10 7 -10 9 0 9 6 0 12 5 12 11 0 6 -6 9 -14 6 -18 -7 -45 41 -28 52 8 5 5
12 -10 25 -17 15 -22 16 -29 5 -7 -11 -14 -8 -30 14 -27 35 -39 34 -39 -3z"/>
<path d="M3217 3142 c-10 -10 -17 -25 -17 -33 0 -8 -5 -20 -11 -26 -7 -7 -4
-18 13 -36 21 -23 27 -25 70 -18 33 5 56 17 73 36 25 26 25 28 8 47 -19 22
-76 48 -103 48 -9 0 -24 -8 -33 -18z"/>
<path d="M2082 1182 c-13 -2 -27 -14 -32 -28 -5 -13 -17 -24 -25 -24 -9 0 -30
-7 -47 -16 l-31 -16 32 -15 c18 -9 31 -23 31 -34 0 -11 6 -19 13 -19 8 0 9 -3
1 -8 -6 -4 -10 -17 -9 -29 1 -14 -4 -23 -12 -23 -8 0 -13 -7 -11 -17 2 -13 11
-17 28 -15 l25 3 -25 -20 c-23 -18 -24 -22 -14 -81 6 -33 7 -63 2 -66 -4 -3
-12 -24 -18 -47 -24 -91 -78 -157 -67 -80 4 21 8 79 10 128 3 50 8 134 12 188
8 102 -1 123 -29 70 -8 -16 -27 -43 -43 -60 -15 -18 -38 -44 -50 -58 -17 -19
-28 -24 -46 -20 -17 5 -26 2 -30 -9 -4 -9 -13 -16 -22 -16 -8 0 -15 -4 -15
-10 0 -5 -15 -17 -32 -26 -18 -9 -35 -20 -38 -23 -17 -21 -143 -91 -165 -91
-34 0 -8 -23 128 -112 220 -146 422 -257 429 -237 2 7 16 6 42 -5 21 -9 50
-16 65 -16 37 0 53 -13 45 -35 -5 -13 -4 -16 4 -11 7 4 10 2 7 -6 -6 -14 8
-20 183 -84 95 -35 116 -36 105 -8 -3 9 0 20 8 25 10 6 4 9 -20 9 -24 0 -32 4
-28 14 3 8 -2 16 -11 18 -10 3 -41 53 -73 119 -78 157 -94 197 -92 232 0 16
-5 41 -13 55 -7 13 -10 31 -7 38 3 8 -1 14 -8 14 -9 1 -7 6 5 15 11 8 14 15 8
15 -7 0 -21 20 -32 44 -12 24 -30 53 -41 65 -13 13 -15 21 -7 21 10 0 10 2 0
8 -22 15 -55 125 -61 207 -6 76 -7 80 -29 77z"/>
<path d="M1835 1093 c-16 -3 -36 -9 -42 -15 -9 -7 -13 -7 -13 2 0 8 -10 10
-32 6 -18 -3 -89 -6 -158 -8 -79 -1 -134 -7 -150 -15 -14 -7 -36 -11 -50 -8
-14 3 -32 1 -40 -5 -10 -7 22 -10 104 -10 102 0 117 2 112 15 -5 13 -2 14 15
5 14 -8 24 -8 33 -1 7 6 16 8 19 4 12 -11 69 -14 62 -3 -4 7 6 10 28 8 27 -1
35 -6 34 -19 -1 -10 -4 -17 -7 -16 -3 0 -151 -3 -330 -7 l-325 -9 85 -79 85
-80 65 7 c176 17 225 28 315 70 50 23 111 52 136 63 26 12 49 28 52 36 4 9 12
16 19 16 15 0 40 35 31 44 -4 3 -9 5 -12 5 -3 -1 -19 -4 -36 -6z"/>
</g>
</svg>
